<mxfile host="app.diagrams.net" modified="2024-07-19T02:19:54.740Z" agent="Mozilla/5.0 (Windows NT 10.0; Win64; x64) AppleWebKit/537.36 (KHTML, like Gecko) Chrome/126.0.0.0 Safari/537.36" etag="Yvjv2hYOXWSQ890niWUF" version="24.7.1" type="github">
  <diagram name="Page-1" id="74e2e168-ea6b-b213-b513-2b3c1d86103e">
    <mxGraphModel dx="1434" dy="738" grid="1" gridSize="10" guides="1" tooltips="1" connect="1" arrows="1" fold="1" page="1" pageScale="1" pageWidth="1100" pageHeight="850" background="none" math="0" shadow="0">
      <root>
        <mxCell id="0" />
        <mxCell id="1" parent="0" />
        <mxCell id="Ef8EQQrEHu5NPuzKo7J7-1" value="" style="rounded=0;html=1;jettySize=auto;orthogonalLoop=1;fontSize=11;endArrow=block;endFill=0;endSize=8;strokeWidth=1;shadow=0;labelBackgroundColor=none;edgeStyle=orthogonalEdgeStyle;" edge="1" parent="1" source="Ef8EQQrEHu5NPuzKo7J7-2" target="Ef8EQQrEHu5NPuzKo7J7-5">
          <mxGeometry relative="1" as="geometry" />
        </mxCell>
        <mxCell id="Ef8EQQrEHu5NPuzKo7J7-2" value="登录" style="rounded=1;whiteSpace=wrap;html=1;fontSize=12;glass=0;strokeWidth=1;shadow=0;" vertex="1" parent="1">
          <mxGeometry x="20" y="20" width="120" height="40" as="geometry" />
        </mxCell>
        <mxCell id="Ef8EQQrEHu5NPuzKo7J7-3" value="Yes" style="rounded=0;html=1;jettySize=auto;orthogonalLoop=1;fontSize=11;endArrow=block;endFill=0;endSize=8;strokeWidth=1;shadow=0;labelBackgroundColor=none;edgeStyle=orthogonalEdgeStyle;" edge="1" parent="1" source="Ef8EQQrEHu5NPuzKo7J7-5" target="Ef8EQQrEHu5NPuzKo7J7-9">
          <mxGeometry y="20" relative="1" as="geometry">
            <mxPoint as="offset" />
          </mxGeometry>
        </mxCell>
        <mxCell id="Ef8EQQrEHu5NPuzKo7J7-4" value="No" style="edgeStyle=orthogonalEdgeStyle;rounded=0;html=1;jettySize=auto;orthogonalLoop=1;fontSize=11;endArrow=block;endFill=0;endSize=8;strokeWidth=1;shadow=0;labelBackgroundColor=none;" edge="1" parent="1" source="Ef8EQQrEHu5NPuzKo7J7-5" target="Ef8EQQrEHu5NPuzKo7J7-6">
          <mxGeometry y="10" relative="1" as="geometry">
            <mxPoint as="offset" />
          </mxGeometry>
        </mxCell>
        <mxCell id="Ef8EQQrEHu5NPuzKo7J7-5" value="是否注册？" style="rhombus;whiteSpace=wrap;html=1;shadow=0;fontFamily=Helvetica;fontSize=12;align=center;strokeWidth=1;spacing=6;spacingTop=-4;" vertex="1" parent="1">
          <mxGeometry x="30" y="110" width="100" height="80" as="geometry" />
        </mxCell>
        <mxCell id="Ef8EQQrEHu5NPuzKo7J7-6" value="注册" style="rounded=1;whiteSpace=wrap;html=1;fontSize=12;glass=0;strokeWidth=1;shadow=0;" vertex="1" parent="1">
          <mxGeometry x="180" y="130" width="120" height="40" as="geometry" />
        </mxCell>
        <mxCell id="Ef8EQQrEHu5NPuzKo7J7-7" value="Yes" style="rounded=0;html=1;jettySize=auto;orthogonalLoop=1;fontSize=11;endArrow=block;endFill=0;endSize=8;strokeWidth=1;shadow=0;labelBackgroundColor=none;edgeStyle=orthogonalEdgeStyle;" edge="1" parent="1" source="Ef8EQQrEHu5NPuzKo7J7-9" target="Ef8EQQrEHu5NPuzKo7J7-10">
          <mxGeometry x="0.3333" y="20" relative="1" as="geometry">
            <mxPoint as="offset" />
          </mxGeometry>
        </mxCell>
        <mxCell id="Ef8EQQrEHu5NPuzKo7J7-8" value="No" style="edgeStyle=orthogonalEdgeStyle;rounded=0;html=1;jettySize=auto;orthogonalLoop=1;fontSize=11;endArrow=block;endFill=0;endSize=8;strokeWidth=1;shadow=0;labelBackgroundColor=none;" edge="1" parent="1" source="Ef8EQQrEHu5NPuzKo7J7-9" target="Ef8EQQrEHu5NPuzKo7J7-11">
          <mxGeometry y="10" relative="1" as="geometry">
            <mxPoint as="offset" />
          </mxGeometry>
        </mxCell>
        <mxCell id="Ef8EQQrEHu5NPuzKo7J7-9" value="是否实名？" style="rhombus;whiteSpace=wrap;html=1;shadow=0;fontFamily=Helvetica;fontSize=12;align=center;strokeWidth=1;spacing=6;spacingTop=-4;" vertex="1" parent="1">
          <mxGeometry x="30" y="230" width="100" height="80" as="geometry" />
        </mxCell>
        <mxCell id="Ef8EQQrEHu5NPuzKo7J7-10" value="Repair Lamp" style="rounded=1;whiteSpace=wrap;html=1;fontSize=12;glass=0;strokeWidth=1;shadow=0;" vertex="1" parent="1">
          <mxGeometry x="20" y="370" width="120" height="40" as="geometry" />
        </mxCell>
        <mxCell id="Ef8EQQrEHu5NPuzKo7J7-11" value="Replace Bulb" style="rounded=1;whiteSpace=wrap;html=1;fontSize=12;glass=0;strokeWidth=1;shadow=0;" vertex="1" parent="1">
          <mxGeometry x="180" y="250" width="120" height="40" as="geometry" />
        </mxCell>
      </root>
    </mxGraphModel>
  </diagram>
</mxfile>
